<?xml version="1.0" encoding="UTF-8"?>
<svg version="1.1" xmlns="http://www.w3.org/2000/svg" width="314" height="307">
<path d="M0 0 C103.62 0 207.24 0 314 0 C314 101.31 314 202.62 314 307 C210.38 307 106.76 307 0 307 C0 205.69 0 104.38 0 0 Z " fill="#2D353F" transform="translate(0,0)"/>
<path d="M0 0 C-0.46179274 2.15503279 -0.91200722 3.85507072 -2.0625 5.75 C-3.52661022 9.26386452 -3.24481076 12.20543329 -3 16 C-1.13239112 18.32865655 -1.13239112 18.32865655 1.875 18.0625 C6.86891287 17.25804123 10.8172117 14.17086553 14.9375 11.3984375 C18.87761074 9.59925428 20.83995176 9.90259213 25 11 C28.3515625 12.62890625 28.3515625 12.62890625 31.625 14.5625 C36.95762393 17.79933404 36.95762393 17.79933404 43 18 C45.40432559 16.02630257 45.40432559 16.02630257 45.3125 12.25 C45.23197359 8.22367941 44.00376263 5.5065846 42 2 C42 1.34 42 0.68 42 0 C47.3184484 -1.3296121 50.25491273 -1.0114207 55.0234375 1.72265625 C56.00183594 2.35494141 56.00183594 2.35494141 57 3 C57.61101562 3.39058594 58.22203125 3.78117188 58.8515625 4.18359375 C65.31231181 8.9793482 68.50842045 16.52526134 71 24 C72.04623729 37.84120484 69.70182869 48.494274 61.07421875 59.59375 C58.29464843 62.81826095 55.45444719 65.51831289 52 68 C51.40832031 68.43828125 50.81664062 68.8765625 50.20703125 69.328125 C38.26004995 77.50626477 25.04566975 78.33604452 11 77 C-1.26176614 74.67561835 -13.07426898 67.46288247 -20.5625 57.5 C-27.59922495 46.91363824 -30.47222384 36.71208663 -29 24 C-27.02687528 14.62765756 -20.41157431 6.82970271 -12.625 1.4375 C-7.94254888 -1.12669942 -5.192576 -0.88175819 0 0 Z " fill="#F15842" transform="translate(209,134)"/>
<path d="M0 0 C8.19750103 5.49622926 12.06988153 14.51344313 14.61328125 23.75 C15.45890625 23.09 16.30453125 22.43 17.17578125 21.75 C22.91557334 18.41950336 30.21455177 19.12253052 36.61328125 19.75 C39.0703125 20.7734375 39.0703125 20.7734375 40.61328125 21.75 C40.61328125 22.08 40.61328125 22.41 40.61328125 22.75 C38.19671749 23.39622041 35.78003479 24.04199004 33.36328125 24.6875 C32.68136719 24.86990234 31.99945313 25.05230469 31.296875 25.24023438 C28.07467231 26.10053121 24.85274902 26.95683134 21.61328125 27.75 C21.61328125 28.41 21.61328125 29.07 21.61328125 29.75 C22.2165625 29.99878906 22.81984375 30.24757812 23.44140625 30.50390625 C25.95404726 31.94551144 26.87748489 33.22493011 28.36328125 35.6875 C28.79125 36.37714844 29.21921875 37.06679687 29.66015625 37.77734375 C30.61328125 39.75 30.61328125 39.75 30.61328125 42.75 C24.7785354 41.0276955 20.01125582 38.14782272 14.83203125 35.015625 C11.70364495 33.45570401 11.70364495 33.45570401 8.59765625 34.3203125 C5.40131884 35.8515422 2.38840178 37.5280043 -0.63671875 39.375 C-6.17447385 42.75 -6.17447385 42.75 -8.38671875 42.75 C-8.01930747 36.62647862 -6.60020439 33.96348564 -2.38671875 29.75 C-1.72671875 29.75 -1.06671875 29.75 -0.38671875 29.75 C-0.38671875 29.09 -0.38671875 28.43 -0.38671875 27.75 C-1.50691406 27.48445313 -2.62710938 27.21890625 -3.78125 26.9453125 C-5.25398213 26.58885504 -6.72663426 26.23206692 -8.19921875 25.875 C-8.93720703 25.70097656 -9.67519531 25.52695313 -10.43554688 25.34765625 C-13.88388912 24.50507489 -16.40600237 23.73714425 -19.38671875 21.75 C-13.99483166 18.41343621 -7.48017378 19.16643972 -1.38671875 19.75 C1.69150199 20.77607358 3.85924916 21.98741946 6.61328125 23.75 C6.24985392 16.66316705 2.10355784 11.30758136 -2.69921875 6.375 C-10.57508131 1.61285054 -18.77789615 0.56489611 -27.8046875 2.18359375 C-35.59839718 4.34329643 -41.05181278 9.33409096 -45.44921875 16 C-48.97665681 22.27311958 -51.18315993 29.08271244 -53.6015625 35.8359375 C-62.0527838 59.31103937 -62.0527838 59.31103937 -71.76171875 65.1875 C-77.26808798 66.36743626 -81.6836933 66.63305024 -86.76171875 64 C-90.91509904 60.43995976 -92.79343685 57.15812687 -94.57421875 52 C-95.09048828 50.52273437 -95.09048828 50.52273437 -95.6171875 49.015625 C-95.87113281 48.26796875 -96.12507813 47.5203125 -96.38671875 46.75 C-96.56847656 47.7915625 -96.75023438 48.833125 -96.9375 49.90625 C-97.46324714 52.91400448 -97.99749313 55.92013594 -98.53515625 58.92578125 C-99.08795132 62.02355496 -99.61307208 65.12379777 -100.11328125 68.23046875 C-100.35004466 69.63284894 -100.58701527 71.03519418 -100.82421875 72.4375 C-101.02917969 73.69949219 -101.23414062 74.96148437 -101.4453125 76.26171875 C-102.5155828 80.22749209 -103.9487296 82.49100424 -106.38671875 85.75 C-108.69921875 85.75 -108.69921875 85.75 -111.38671875 84.75 C-116.49781648 74.33850461 -116.94223312 62.31497438 -117.94921875 50.9375 C-118.13740741 48.84471646 -118.32718419 46.75210632 -118.52000427 44.65974426 C-118.69328273 42.77502153 -118.86156263 40.88984117 -119.02954102 39.00463867 C-119.33752748 36.19823566 -119.7775845 33.50427547 -120.38671875 30.75 C-120.43016922 31.32390472 -120.47361969 31.89780945 -120.51838684 32.48910522 C-120.97955059 38.55894142 -121.45216143 44.62781499 -121.9309082 50.69628906 C-122.10724284 52.94964996 -122.28082847 55.20322799 -122.45141602 57.45703125 C-123.28022225 68.38463484 -124.12480113 79.2799512 -125.8984375 90.1015625 C-126.01621048 90.82789886 -126.13398346 91.55423523 -126.25532532 92.30258179 C-126.86411177 95.75010619 -127.5856792 98.72774413 -129.38671875 101.75 C-131.76171875 101.9375 -131.76171875 101.9375 -134.38671875 101.75 C-136.89249936 97.99132909 -137.26589533 94.43865094 -137.88671875 90.0625 C-138.0148999 89.18907959 -138.14308105 88.31565918 -138.27514648 87.41577148 C-139.40117491 79.38089066 -140.06795296 71.3250706 -140.68310547 63.23754883 C-141.24344762 55.99871007 -142.07468456 48.89639902 -143.38671875 41.75 C-143.66018395 43.33288089 -143.9301752 44.91636156 -144.19921875 46.5 C-144.38355469 47.58152344 -144.56789063 48.66304687 -144.7578125 49.77734375 C-145.24752055 52.7629331 -145.65760333 55.75362458 -146.046875 58.75390625 C-146.22416138 60.06633301 -146.22416138 60.06633301 -146.4050293 61.40527344 C-146.63859091 63.14523549 -146.86056287 64.88680198 -147.06958008 66.62988281 C-147.83548093 72.21464515 -149.2899179 76.02833451 -152.38671875 80.75 C-154.03671875 80.75 -155.68671875 80.75 -157.38671875 80.75 C-161.93008355 74.44675476 -163.30788783 68.2401541 -164.30981445 60.69165039 C-164.89980497 56.51425171 -165.63872634 53.9497172 -168.38671875 50.75 C-168.57421875 48 -168.57421875 48 -168.38671875 45.75 C-167.39671875 45.75 -166.40671875 45.75 -165.38671875 45.75 C-165.38671875 46.41 -165.38671875 47.07 -165.38671875 47.75 C-164.39671875 48.08 -163.40671875 48.41 -162.38671875 48.75 C-160.31553541 51.85677502 -159.94133386 53.51009794 -159.38671875 57.125 C-158.79579353 60.9554617 -157.84400431 64.1670045 -156.38671875 67.75 C-156.26171875 70.5625 -156.26171875 70.5625 -156.38671875 72.75 C-155.72671875 72.75 -155.06671875 72.75 -154.38671875 72.75 C-154.26554687 71.7084375 -154.144375 70.666875 -154.01953125 69.59375 C-153.66827156 66.58021837 -153.31183318 63.56734098 -152.953125 60.5546875 C-152.59221825 57.51965105 -152.24578826 54.48366692 -151.9140625 51.4453125 C-149.6151493 30.97843055 -149.6151493 30.97843055 -146.38671875 27.75 C-143.44921875 27.5 -143.44921875 27.5 -140.38671875 27.75 C-136.17632193 34.06559523 -135.98862081 42.19044476 -135.31640625 49.59765625 C-135.23045197 50.49495956 -135.14449768 51.39226288 -135.05593872 52.3167572 C-134.78591866 55.14820087 -134.52368689 57.98030121 -134.26171875 60.8125 C-134.07864211 62.7467938 -133.89505313 64.68103919 -133.7109375 66.61523438 C-133.26361106 71.32628433 -132.82326192 76.0379391 -132.38671875 80.75 C-130.92243994 74.16129028 -130.00346785 67.74150262 -129.60546875 61.0078125 C-129.51694641 59.67337601 -129.51694641 59.67337601 -129.42663574 58.3119812 C-129.24037761 55.50001968 -129.06253853 52.68763214 -128.88671875 49.875 C-126.94041019 18.85738288 -126.94041019 18.85738288 -122.38671875 9.75 C-120.01171875 10 -120.01171875 10 -117.38671875 10.75 C-114.74634666 14.45037548 -114.51569105 19.11087648 -113.88671875 23.5 C-113.69444702 24.80336304 -113.69444702 24.80336304 -113.49829102 26.13305664 C-112.36898181 34.15164823 -111.70424427 42.19083876 -111.09033203 50.26269531 C-110.52995065 57.5014484 -109.6987383 64.60368072 -108.38671875 71.75 C-106.41570433 65.46474802 -105.48051088 59.20834396 -104.61914062 52.68945312 C-103.78344249 46.91344005 -102.65718079 42.02046204 -98.38671875 37.75 C-96.01171875 37.75 -96.01171875 37.75 -93.38671875 38.75 C-89.39285665 43.2279666 -88.06492952 48.44407099 -86.4140625 54.140625 C-85.55546547 57.0498886 -85.55546547 57.0498886 -82.38671875 58.75 C-78.00478475 59.246068 -74.47266654 59.13990563 -70.85546875 56.37890625 C-65.6755989 50.63421016 -63.29998914 42.73215892 -61.01171875 35.5 C-55.84444694 19.33358369 -48.83621428 4.95023498 -33.453125 -3.28515625 C-22.71977049 -8.08280951 -10.03324842 -5.25472912 0 0 Z " fill="#B5BABE" transform="translate(219.38671875,104.25)"/>
<path d="M0 0 C8.19750103 5.49622926 12.06988153 14.51344313 14.61328125 23.75 C15.45890625 23.09 16.30453125 22.43 17.17578125 21.75 C22.91557334 18.41950336 30.21455177 19.12253052 36.61328125 19.75 C39.0703125 20.7734375 39.0703125 20.7734375 40.61328125 21.75 C40.61328125 22.08 40.61328125 22.41 40.61328125 22.75 C38.19671749 23.39622041 35.78003479 24.04199004 33.36328125 24.6875 C32.68136719 24.86990234 31.99945313 25.05230469 31.296875 25.24023438 C28.07467231 26.10053121 24.85274902 26.95683134 21.61328125 27.75 C21.61328125 28.41 21.61328125 29.07 21.61328125 29.75 C22.2165625 29.99878906 22.81984375 30.24757812 23.44140625 30.50390625 C25.95404726 31.94551144 26.87748489 33.22493011 28.36328125 35.6875 C28.79125 36.37714844 29.21921875 37.06679687 29.66015625 37.77734375 C30.61328125 39.75 30.61328125 39.75 30.61328125 42.75 C24.7785354 41.0276955 20.01125582 38.14782272 14.83203125 35.015625 C11.70364495 33.45570401 11.70364495 33.45570401 8.59765625 34.3203125 C5.40131884 35.8515422 2.38840178 37.5280043 -0.63671875 39.375 C-6.17447385 42.75 -6.17447385 42.75 -8.38671875 42.75 C-8.01930747 36.62647862 -6.60020439 33.96348564 -2.38671875 29.75 C-1.72671875 29.75 -1.06671875 29.75 -0.38671875 29.75 C-0.38671875 29.09 -0.38671875 28.43 -0.38671875 27.75 C-1.50691406 27.48445313 -2.62710938 27.21890625 -3.78125 26.9453125 C-5.25398213 26.58885504 -6.72663426 26.23206692 -8.19921875 25.875 C-9.30620117 25.61396484 -9.30620117 25.61396484 -10.43554688 25.34765625 C-13.88388912 24.50507489 -16.40600237 23.73714425 -19.38671875 21.75 C-13.99483166 18.41343621 -7.48017378 19.16643972 -1.38671875 19.75 C1.69150199 20.77607358 3.85924916 21.98741946 6.61328125 23.75 C6.24985392 16.66316705 2.10355784 11.30758136 -2.69921875 6.375 C-10.57508131 1.61285054 -18.77789615 0.56489611 -27.8046875 2.18359375 C-35.59839718 4.34329643 -41.05181278 9.33409096 -45.44921875 16 C-48.97665681 22.27311958 -51.18315993 29.08271244 -53.6015625 35.8359375 C-62.0527838 59.31103937 -62.0527838 59.31103937 -71.76171875 65.1875 C-77.2551876 66.3646719 -81.68002185 66.55680217 -86.82421875 64.125 C-89.71122024 61.44924252 -90.52354832 59.54794988 -91.38671875 55.75 C-89.73671875 55.09 -88.08671875 54.43 -86.38671875 53.75 C-85.95359375 54.7090625 -85.95359375 54.7090625 -85.51171875 55.6875 C-84.55848424 57.90206079 -84.55848424 57.90206079 -82.38671875 58.75 C-78.0032796 59.17148453 -74.4740808 59.14098513 -70.85546875 56.37890625 C-65.6755989 50.63421016 -63.29998914 42.73215892 -61.01171875 35.5 C-55.84444694 19.33358369 -48.83621428 4.95023498 -33.453125 -3.28515625 C-22.71977049 -8.08280951 -10.03324842 -5.25472912 0 0 Z " fill="#E7ECEE" transform="translate(219.38671875,104.25)"/>
<path d="M0 0 C2.475 2.475 2.475 2.475 5 5 C2.13938658 16.34208128 -1.87005415 27.32589922 -12 34 C-17.43223369 35.81074456 -22.23776143 35.83305823 -27.4375 33.375 C-30.32450149 30.69924252 -31.13682957 28.79794988 -32 25 C-30.35 24.34 -28.7 23.68 -27 23 C-26.71125 23.639375 -26.4225 24.27875 -26.125 24.9375 C-25.17176549 27.15206079 -25.17176549 27.15206079 -23 28 C-18.61886463 28.42126302 -15.09795168 28.38618207 -11.47265625 25.640625 C-5.29561836 18.75904433 -2.61421054 8.6730279 0 0 Z " fill="#DDE0E4" transform="translate(160,135)"/>
<path d="M0 0 C-0.66 0 -1.32 0 -2 0 C-1.67 1.98 -1.34 3.96 -1 6 C-2.76638144 7.48448016 -4.53826138 8.96241965 -6.3125 10.4375 C-7.29863281 11.26121094 -8.28476562 12.08492187 -9.30078125 12.93359375 C-13.29091479 15.98826906 -16.16787759 16.13689459 -21.0625 16.125 C-22.12597656 16.12757813 -23.18945312 16.13015625 -24.28515625 16.1328125 C-27 16 -27 16 -29 15 C-28.67 13.35 -28.34 11.7 -28 10 C-26.78763672 9.94392578 -26.78763672 9.94392578 -25.55078125 9.88671875 C-24.48214844 9.82097656 -23.41351563 9.75523437 -22.3125 9.6875 C-20.72888672 9.60048828 -20.72888672 9.60048828 -19.11328125 9.51171875 C-14.34533603 8.72802888 -11.20724181 6.70259881 -8.3125 2.875 C-5.29625521 -0.87492595 -4.43472285 -1.33041686 0 0 Z " fill="#636A71" transform="translate(53,150)"/>
<path d="M0 0 C3.93234192 1.52924408 7.63917062 3.35924911 11.375 5.3125 C9.395 6.3025 9.395 6.3025 7.375 7.3125 C7.045 6.3225 6.715 5.3325 6.375 4.3125 C5.6015625 4.5909375 5.6015625 4.5909375 4.8125 4.875 C1.51591261 5.46669517 -1.34745735 4.879767 -4.625 4.3125 C-4.625 5.3025 -4.625 6.2925 -4.625 7.3125 C-6.41310766 8.00920416 -8.20562052 8.69461189 -10 9.375 C-10.99773437 9.75785156 -11.99546875 10.14070312 -13.0234375 10.53515625 C-15.625 11.3125 -15.625 11.3125 -17.625 10.3125 C-17.625 11.3025 -17.625 12.2925 -17.625 13.3125 C-18.945 12.9825 -20.265 12.6525 -21.625 12.3125 C-21.625 10.3325 -21.625 8.3525 -21.625 6.3125 C-21.295 7.3025 -20.965 8.2925 -20.625 9.3125 C-19.49320313 8.67441406 -18.36140625 8.03632813 -17.1953125 7.37890625 C-15.71355576 6.54424581 -14.23178416 5.70961176 -12.75 4.875 C-12.00363281 4.45412109 -11.25726563 4.03324219 -10.48828125 3.59960938 C-9.41513672 2.99536133 -9.41513672 2.99536133 -8.3203125 2.37890625 C-7.66047363 2.00709229 -7.00063477 1.63527832 -6.32080078 1.25219727 C-2.75767021 -0.72224696 -2.75767021 -0.72224696 0 0 Z " fill="#3C4149" transform="translate(231.625,137.6875)"/>
<path d="M0 0 C0.33 0.33 0.66 0.66 1 1 C0.82364548 3.69082872 0.38164079 6.32851446 0 9 C0.66 9 1.32 9 2 9 C1.67 11.97 1.34 14.94 1 18 C2.32 18.33 3.64 18.66 5 19 C5 18.01 5 17.02 5 16 C5.7425 15.855625 6.485 15.71125 7.25 15.5625 C9.52027739 15.09812508 11.75759479 14.58136431 14 14 C10.71498459 17.86472402 6.2525814 20.64163478 1.25 21.4375 C-1 21 -1 21 -2.8125 20 C-4.73176359 16.76755606 -4.60439701 13.5945717 -4 10 C-2.89622361 7.18560912 -1.54598748 4.59505041 0 2 C-5.30331456 1.68180113 -8.38061275 2.42173735 -13 5 C-13.66 5 -14.32 5 -15 5 C-15 4.34 -15 3.68 -15 3 C-9.65196824 0.32598412 -5.98235897 -0.41257648 0 0 Z " fill="#423134" transform="translate(209,132)"/>
<path d="M0 0 C0.99 0.33 1.98 0.66 3 1 C2.42655063 3.86724686 2.1385485 4.8614515 0 7 C-2.65537372 7.56520003 -5.29144713 7.73788198 -8 8 C-8 9.98 -8 11.96 -8 14 C-8.66 14 -9.32 14 -10 14 C-10.33 14.99 -10.66 15.98 -11 17 C-11.598125 16.05125 -12.19625 15.1025 -12.8125 14.125 C-14.81562526 10.86035803 -14.81562526 10.86035803 -18 9 C-18 8.34 -18 7.68 -18 7 C-12.06084316 4.49289691 -6.29722557 2.39938346 0 1 C0 0.67 0 0.34 0 0 Z " fill="#3A4149" transform="translate(259,125)"/>
<path d="M0 0 C0.66 0.33 1.32 0.66 2 1 C3.25532682 4.76598046 3.43392093 8.06196288 3 12 C1.9375 14.0625 1.9375 14.0625 0 15 C-5.36384977 14.62760117 -9.00620034 13.18970672 -13.625 10.5 C-17.4564406 8.2794026 -20.58628459 6.5906831 -25 6 C-25 5.34 -25 4.68 -25 4 C-21.37 4 -17.74 4 -14 4 C-13.67 4.66 -13.34 5.32 -13 6 C-11.35 6 -9.7 6 -8 6 C-8 7 -8 8 -8 9 C-7.67 9.66 -7.34 10.32 -7 11 C-6.34 11 -5.68 11 -5 11 C-5 11.66 -5 12.32 -5 13 C-3.35 13 -1.7 13 0 13 C0 8.71 0 4.42 0 0 Z " fill="#453337" transform="translate(252,138)"/>
<path d="M0 0 C1.34384766 -0.03867188 1.34384766 -0.03867188 2.71484375 -0.078125 C3.48957031 0.03015625 4.26429688 0.1384375 5.0625 0.25 C5.7225 1.24 6.3825 2.23 7.0625 3.25 C6.36382812 3.1778125 5.66515625 3.105625 4.9453125 3.03125 C4.03523438 2.9384375 3.12515625 2.845625 2.1875 2.75 C1.28257812 2.6571875 0.37765625 2.564375 -0.5546875 2.46875 C-2.87063211 2.21952705 -2.87063211 2.21952705 -4.9375 2.25 C-4.586875 3.384375 -4.23625 4.51875 -3.875 5.6875 C-2.67233531 10.38882562 -3.12642154 14.5150555 -3.9375 19.25 C-5.5875 19.25 -7.2375 19.25 -8.9375 19.25 C-8.9375 18.59 -8.9375 17.93 -8.9375 17.25 C-10.9175 16.59 -12.8975 15.93 -14.9375 15.25 C-13.9475 14.59 -12.9575 13.93 -11.9375 13.25 C-8.75 14.125 -8.75 14.125 -5.9375 15.25 C-6.123125 13.950625 -6.30875 12.65125 -6.5 11.3125 C-6.81640625 9.09765625 -6.81640625 9.09765625 -6.9375 7.25 C-6.6075 6.92 -6.2775 6.59 -5.9375 6.25 C-5.9375 5.425 -5.9375 4.6 -5.9375 3.75 C-5.9375 -0.64624145 -3.8702323 0.06663241 0 0 Z " fill="#3A363C" transform="translate(255.9375,131.75)"/>
<path d="M0 0 C0.66 0 1.32 0 2 0 C5.7941131 6.913021 6.62272773 12.74372085 6.5 20.5625 C6.51546875 21.55185547 6.5309375 22.54121094 6.546875 23.56054688 C6.51394696 29.76336676 5.78650299 34.92052517 2 40 C1.01 40.66 0.02 41.32 -1 42 C-0.5978125 41.071875 -0.5978125 41.071875 -0.1875 40.125 C0.204375 39.09375 0.59625 38.0625 1 37 C1.26425781 36.3296875 1.52851563 35.659375 1.80078125 34.96875 C5.05896077 25.70378454 5.742384 15.39030194 2 6.1875 C1.62875 5.41792969 1.2575 4.64835938 0.875 3.85546875 C0 2 0 2 0 0 Z " fill="#522F2F" transform="translate(275,146)"/>
<path d="M0 0 C0.8957373 0.21329956 0.8957373 0.21329956 1.80957031 0.4309082 C8.2057806 1.84643245 14.2126041 2.27737737 20.75 2.1875 C22.10931641 2.1865332 22.10931641 2.1865332 23.49609375 2.18554688 C28.10440382 2.15527331 32.4678056 1.93795414 37 1 C36.34 1.33 35.68 1.66 35 2 C35 2.66 35 3.32 35 4 C23.23181656 6.3012505 10.89798809 6.37698091 0 1 C0 0.67 0 0.34 0 0 Z " fill="#4E3130" transform="translate(210,208)"/>
<path d="M0 0 C0.33 0.99 0.66 1.98 1 3 C-0.45505358 3.52992692 -1.91418127 4.0486789 -3.375 4.5625 C-4.59316406 4.99755859 -4.59316406 4.99755859 -5.8359375 5.44140625 C-8 6 -8 6 -10 5 C-10 5.99 -10 6.98 -10 8 C-11.32 7.67 -12.64 7.34 -14 7 C-14 5.02 -14 3.04 -14 1 C-13.67 1.99 -13.34 2.98 -13 4 C-11.96875 3.34 -10.9375 2.68 -9.875 2 C-6.46423174 0.02717274 -3.9798357 -0.38827665 0 0 Z " fill="#35373D" transform="translate(224,143)"/>
<path d="M0 0 C-0.46179274 2.15503279 -0.91200722 3.85507072 -2.0625 5.75 C-3.52983062 9.2715935 -3.2417656 12.19219182 -3 16 C-2.34 16.99 -1.68 17.98 -1 19 C-2.32 18.34 -3.64 17.68 -5 17 C-5.20413361 11.26157749 -5.27141454 6.39460953 -3 1 C-6.3 1.66 -9.6 2.32 -13 3 C-8.46581795 -1.53418205 -6.0622627 -1.02944084 0 0 Z " fill="#C75B50" transform="translate(209,134)"/>
<path d="M0 0 C0.33 0 0.66 0 1 0 C1.33 5.28 1.66 10.56 2 16 C1.34 15.67 0.68 15.34 0 15 C-0.33 17.64 -0.66 20.28 -1 23 C-1.33 23 -1.66 23 -2 23 C-2.265625 6.796875 -2.265625 6.796875 0 0 Z " fill="#42484E" transform="translate(99,132)"/>
<path d="M0 0 C0.66 0.33 1.32 0.66 2 1 C3.25532682 4.76598046 3.43392093 8.06196288 3 12 C1.9375 14.0625 1.9375 14.0625 0 15 C-3.625 14.8125 -3.625 14.8125 -7 14 C-7.33 13.34 -7.66 12.68 -8 12 C-5.36 12.33 -2.72 12.66 0 13 C0 8.71 0 4.42 0 0 Z " fill="#522F2D" transform="translate(252,138)"/>
<path d="M0 0 C3 2.0625 3 2.0625 5 4 C0.51474352 3.343621 -3.66914029 2.29925791 -8 1 C-7.01 2.485 -7.01 2.485 -6 4 C-6.375 6.1875 -6.375 6.1875 -7 8 C-10 2.25 -10 2.25 -10 0 C-6.74422601 -1.627887 -3.41194178 -0.87418776 0 0 Z " fill="#CA5C52" transform="translate(261,134)"/>
<path d="M0 0 C0.33 0 0.66 0 1 0 C0.85758352 2.35441716 0.71115192 4.70847484 0.5625 7.0625 C0.48128906 8.37347656 0.40007812 9.68445313 0.31640625 11.03515625 C0.02101751 14.73663238 -0.43265388 18.33370448 -1 22 C-1.33 22 -1.66 22 -2 22 C-3.10852275 17.56590901 -3.21993456 13.54531422 -3 9 C-2.34 8.01 -1.68 7.02 -1 6 C-0.60986284 4.0103005 -0.26797351 2.00980131 0 0 Z " fill="#4D5157" transform="translate(89,168)"/>
<path d="M0 0 C0.33 0 0.66 0 1 0 C1.05395478 1.62463842 1.09277195 3.24978541 1.125 4.875 C1.14820313 5.77992188 1.17140625 6.68484375 1.1953125 7.6171875 C1 10 1 10 -1 12 C-3.1640625 11.9765625 -3.1640625 11.9765625 -5.625 11.625 C-6.85089844 11.45871094 -6.85089844 11.45871094 -8.1015625 11.2890625 C-9.04128906 11.14597656 -9.04128906 11.14597656 -10 11 C-10 10.34 -10 9.68 -10 9 C-8.329375 9.061875 -8.329375 9.061875 -6.625 9.125 C-2.95633975 9.41121859 -2.95633975 9.41121859 -1 7 C-0.59952556 4.67724823 -0.2602896 2.34260643 0 0 Z " fill="#D55C4D" transform="translate(255,143)"/>
<path d="M0 0 C0.99 0.33 1.98 0.66 3 1 C2.67 4.3 2.34 7.6 2 11 C1.34 11 0.68 11 0 11 C-0.19491452 9.54263913 -0.38069358 8.08405407 -0.5625 6.625 C-0.66691406 5.81289062 -0.77132812 5.00078125 -0.87890625 4.1640625 C-1 2 -1 2 0 0 Z " fill="#394045" transform="translate(63,166)"/>
<path d="M0 0 C0.66 0.33 1.32 0.66 2 1 C0.44632634 2.01365893 -1.11837836 3.01042256 -2.6875 4 C-3.99267578 4.8353125 -3.99267578 4.8353125 -5.32421875 5.6875 C-8.16973337 7.08325608 -9.8788594 7.26993648 -13 7 C-13.33 6.34 -13.66 5.68 -14 5 C-11.69 5 -9.38 5 -7 5 C-7 4.01 -7 3.02 -7 2 C-5.824375 1.7834375 -5.824375 1.7834375 -4.625 1.5625 C-2.03578982 1.12201075 -2.03578982 1.12201075 0 0 Z " fill="#53302E" transform="translate(221,146)"/>
<path d="M0 0 C3.98175544 2.10148204 6.35039045 4.36905358 9 8 C8.67 8.66 8.34 9.32 8 10 C7.34 8.68 6.68 7.36 6 6 C5.01 6 4.02 6 3 6 C0 2.66666667 0 2.66666667 0 0 Z " fill="#C85B4E" transform="translate(266,138)"/>
<path d="M0 0 C0.33 0.99 0.66 1.98 1 3 C2.32 2.67 3.64 2.34 5 2 C5.33 2.66 5.66 3.32 6 4 C5.34 4 4.68 4 4 4 C4 4.99 4 5.98 4 7 C2.68 6.67 1.36 6.34 0 6 C0 4.02 0 2.04 0 0 Z " fill="#3C4248" transform="translate(210,144)"/>
<path d="M0 0 C0.66 0.99 1.32 1.98 2 3 C1.25 5.625 1.25 5.625 0 8 C-0.99 8.495 -0.99 8.495 -2 9 C-1.125 1.125 -1.125 1.125 0 0 Z " fill="#474C50" transform="translate(123,150)"/>
</svg>
